<mxfile host="app.diagrams.net" modified="2020-04-20T18:46:38.312Z" agent="Mozilla/5.0 (Macintosh; Intel Mac OS X 10_15_4) AppleWebKit/537.36 (KHTML, like Gecko) Chrome/80.0.3987.149 Safari/537.36" etag="1kQNQRLWgvIcdYOE1GqT" version="12.9.3" type="github">
  <diagram name="Page-1" id="e7e014a7-5840-1c2e-5031-d8a46d1fe8dd">
    <mxGraphModel dx="1981" dy="628" grid="1" gridSize="10" guides="1" tooltips="1" connect="1" arrows="1" fold="1" page="1" pageScale="1" pageWidth="1169" pageHeight="826" background="#ffffff" math="0" shadow="0">
      <root>
        <mxCell id="0" />
        <mxCell id="1" parent="0" />
        <mxCell id="2" value="APP" style="swimlane;whiteSpace=wrap" parent="1" vertex="1">
          <mxGeometry x="20" y="128" width="430" height="570" as="geometry" />
        </mxCell>
        <mxCell id="10" value="test" style="" parent="2" vertex="1">
          <mxGeometry x="25.5" y="432" width="194.5" height="18" as="geometry" />
        </mxCell>
        <mxCell id="YLWLQg9HbN8ze3cdhpAt-51" value="" style="line;strokeWidth=9;fillColor=none;align=left;verticalAlign=middle;spacingTop=-1;spacingLeft=3;spacingRight=3;rotatable=0;labelPosition=right;points=[];portConstraint=eastwest;" parent="2" vertex="1">
          <mxGeometry x="35.5" y="72" width="304.5" height="18" as="geometry" />
        </mxCell>
        <mxCell id="YLWLQg9HbN8ze3cdhpAt-87" style="edgeStyle=orthogonalEdgeStyle;rounded=0;orthogonalLoop=1;jettySize=auto;html=1;exitX=0.5;exitY=1;exitDx=0;exitDy=0;" parent="2" source="YLWLQg9HbN8ze3cdhpAt-53" edge="1">
          <mxGeometry relative="1" as="geometry">
            <mxPoint x="60" y="352" as="targetPoint" />
            <Array as="points">
              <mxPoint x="60" y="322" />
              <mxPoint x="60" y="352" />
            </Array>
          </mxGeometry>
        </mxCell>
        <mxCell id="YLWLQg9HbN8ze3cdhpAt-53" value="sign in" style="" parent="2" vertex="1">
          <mxGeometry x="25.5" y="302" width="74.5" height="20" as="geometry" />
        </mxCell>
        <mxCell id="YLWLQg9HbN8ze3cdhpAt-54" value="" style="endArrow=open;endFill=1;endSize=12;html=1;exitX=0.08;exitY=0.333;exitDx=0;exitDy=0;exitPerimeter=0;" parent="2" source="YLWLQg9HbN8ze3cdhpAt-51" edge="1">
          <mxGeometry width="160" relative="1" as="geometry">
            <mxPoint x="72.5" y="50" as="sourcePoint" />
            <mxPoint x="63" y="302" as="targetPoint" />
            <Array as="points" />
          </mxGeometry>
        </mxCell>
        <mxCell id="YLWLQg9HbN8ze3cdhpAt-89" style="edgeStyle=orthogonalEdgeStyle;rounded=0;orthogonalLoop=1;jettySize=auto;html=1;entryX=0.914;entryY=0;entryDx=0;entryDy=0;entryPerimeter=0;" parent="2" source="YLWLQg9HbN8ze3cdhpAt-55" target="YLWLQg9HbN8ze3cdhpAt-84" edge="1">
          <mxGeometry relative="1" as="geometry" />
        </mxCell>
        <mxCell id="YLWLQg9HbN8ze3cdhpAt-55" value="log in" style="" parent="2" vertex="1">
          <mxGeometry x="113" y="258.5" width="49.5" height="27" as="geometry" />
        </mxCell>
        <mxCell id="YLWLQg9HbN8ze3cdhpAt-58" value="" style="endArrow=open;endFill=1;endSize=12;html=1;entryX=0.5;entryY=0;entryDx=0;entryDy=0;" parent="2" target="YLWLQg9HbN8ze3cdhpAt-55" edge="1">
          <mxGeometry width="160" relative="1" as="geometry">
            <mxPoint x="138" y="82" as="sourcePoint" />
            <mxPoint x="137.5000000000001" y="110" as="targetPoint" />
          </mxGeometry>
        </mxCell>
        <mxCell id="YLWLQg9HbN8ze3cdhpAt-73" style="edgeStyle=orthogonalEdgeStyle;rounded=0;orthogonalLoop=1;jettySize=auto;html=1;entryX=0.5;entryY=0;entryDx=0;entryDy=0;" parent="2" source="YLWLQg9HbN8ze3cdhpAt-66" target="YLWLQg9HbN8ze3cdhpAt-72" edge="1">
          <mxGeometry relative="1" as="geometry" />
        </mxCell>
        <mxCell id="YLWLQg9HbN8ze3cdhpAt-66" value="Connect to &#xa;Sensor" style="" parent="2" vertex="1">
          <mxGeometry x="175.5" y="110" width="74.5" height="30" as="geometry" />
        </mxCell>
        <mxCell id="YLWLQg9HbN8ze3cdhpAt-68" value="" style="endArrow=open;endFill=1;endSize=12;html=1;entryX=0.5;entryY=0;entryDx=0;entryDy=0;" parent="2" edge="1">
          <mxGeometry width="160" relative="1" as="geometry">
            <mxPoint x="213" y="82" as="sourcePoint" />
            <mxPoint x="212.5" y="110" as="targetPoint" />
          </mxGeometry>
        </mxCell>
        <mxCell id="YLWLQg9HbN8ze3cdhpAt-74" style="edgeStyle=orthogonalEdgeStyle;rounded=0;orthogonalLoop=1;jettySize=auto;html=1;" parent="2" source="YLWLQg9HbN8ze3cdhpAt-72" edge="1">
          <mxGeometry relative="1" as="geometry">
            <mxPoint x="213" y="432" as="targetPoint" />
            <Array as="points">
              <mxPoint x="213" y="432" />
            </Array>
          </mxGeometry>
        </mxCell>
        <mxCell id="YLWLQg9HbN8ze3cdhpAt-72" value="Receive data" style="" parent="2" vertex="1">
          <mxGeometry x="175.5" y="172" width="74.5" height="30" as="geometry" />
        </mxCell>
        <mxCell id="YLWLQg9HbN8ze3cdhpAt-84" value="Receive Command" style="" parent="2" vertex="1">
          <mxGeometry x="11" y="352" width="139" height="30" as="geometry" />
        </mxCell>
        <mxCell id="YLWLQg9HbN8ze3cdhpAt-119" style="edgeStyle=orthogonalEdgeStyle;rounded=0;orthogonalLoop=1;jettySize=auto;html=1;entryX=0.25;entryY=0.5;entryDx=0;entryDy=0;entryPerimeter=0;strokeWidth=1;" parent="2" source="YLWLQg9HbN8ze3cdhpAt-77" target="YLWLQg9HbN8ze3cdhpAt-116" edge="1">
          <mxGeometry relative="1" as="geometry" />
        </mxCell>
        <mxCell id="YLWLQg9HbN8ze3cdhpAt-77" value="Send data" style="" parent="2" vertex="1">
          <mxGeometry x="11" y="532" width="100" height="30" as="geometry" />
        </mxCell>
        <mxCell id="YLWLQg9HbN8ze3cdhpAt-124" style="edgeStyle=orthogonalEdgeStyle;rounded=0;orthogonalLoop=1;jettySize=auto;html=1;strokeWidth=1;" parent="2" source="YLWLQg9HbN8ze3cdhpAt-115" target="YLWLQg9HbN8ze3cdhpAt-123" edge="1">
          <mxGeometry relative="1" as="geometry" />
        </mxCell>
        <mxCell id="YLWLQg9HbN8ze3cdhpAt-115" value="Show results" style="" parent="2" vertex="1">
          <mxGeometry x="260" y="291" width="80" height="42" as="geometry" />
        </mxCell>
        <mxCell id="YLWLQg9HbN8ze3cdhpAt-116" value="" style="shape=line;html=1;strokeWidth=6;strokeColor=#ff0000;rotation=-90;" parent="2" vertex="1">
          <mxGeometry x="230" y="522" width="80" height="10" as="geometry" />
        </mxCell>
        <mxCell id="YLWLQg9HbN8ze3cdhpAt-123" value="" style="ellipse;html=1;shape=endState;fillColor=#000000;strokeColor=#ff0000;" parent="2" vertex="1">
          <mxGeometry x="285" y="228.5" width="30" height="30" as="geometry" />
        </mxCell>
        <mxCell id="YLWLQg9HbN8ze3cdhpAt-130" style="edgeStyle=orthogonalEdgeStyle;rounded=0;orthogonalLoop=1;jettySize=auto;html=1;exitX=0.5;exitY=1;exitDx=0;exitDy=0;entryX=0.465;entryY=0.351;entryDx=0;entryDy=0;entryPerimeter=0;strokeWidth=1;" parent="2" source="YLWLQg9HbN8ze3cdhpAt-125" target="YLWLQg9HbN8ze3cdhpAt-51" edge="1">
          <mxGeometry relative="1" as="geometry" />
        </mxCell>
        <mxCell id="YLWLQg9HbN8ze3cdhpAt-125" value="" style="ellipse;html=1;shape=startState;fillColor=#000000;strokeColor=#ff0000;" parent="2" vertex="1">
          <mxGeometry x="162.5" y="22" width="30" height="30" as="geometry" />
        </mxCell>
        <mxCell id="3" value="Sensor" style="swimlane;whiteSpace=wrap" parent="1" vertex="1">
          <mxGeometry x="450" y="128" width="320" height="570" as="geometry" />
        </mxCell>
        <mxCell id="YLWLQg9HbN8ze3cdhpAt-69" value="Collect environmetal &#xa;data" style="" parent="3" vertex="1">
          <mxGeometry x="135" y="42" width="124.5" height="50" as="geometry" />
        </mxCell>
        <mxCell id="YLWLQg9HbN8ze3cdhpAt-70" value="Send data to &#xa;APP" style="" parent="3" vertex="1">
          <mxGeometry x="19.999999999999986" y="42" width="104.75" height="50" as="geometry" />
        </mxCell>
        <mxCell id="YLWLQg9HbN8ze3cdhpAt-134" value="Simulator" style="shape=umlFrame;whiteSpace=wrap;html=1;strokeWidth=1;" parent="3" vertex="1">
          <mxGeometry x="29.5" y="132" width="230" height="200" as="geometry" />
        </mxCell>
        <mxCell id="YLWLQg9HbN8ze3cdhpAt-135" value="Simulate environmetal &#xa;data" style="" parent="3" vertex="1">
          <mxGeometry x="97.75" y="162" width="124.5" height="50" as="geometry" />
        </mxCell>
        <mxCell id="4" value="Backend System" style="swimlane;whiteSpace=wrap" parent="1" vertex="1">
          <mxGeometry x="724.5" y="128" width="280" height="570" as="geometry" />
        </mxCell>
        <mxCell id="YLWLQg9HbN8ze3cdhpAt-83" style="edgeStyle=orthogonalEdgeStyle;rounded=0;orthogonalLoop=1;jettySize=auto;html=1;" parent="4" source="YLWLQg9HbN8ze3cdhpAt-79" target="YLWLQg9HbN8ze3cdhpAt-82" edge="1">
          <mxGeometry relative="1" as="geometry" />
        </mxCell>
        <mxCell id="YLWLQg9HbN8ze3cdhpAt-79" value="Receive data" style="" parent="4" vertex="1">
          <mxGeometry x="82.75" y="442" width="114.5" height="30" as="geometry" />
        </mxCell>
        <mxCell id="YLWLQg9HbN8ze3cdhpAt-82" value="Process Data" style="" parent="4" vertex="1">
          <mxGeometry x="82.75" y="360" width="114.5" height="30" as="geometry" />
        </mxCell>
        <mxCell id="YLWLQg9HbN8ze3cdhpAt-106" value="&lt;span style=&quot;font-size: 11px&quot;&gt;No&lt;/span&gt;&lt;br style=&quot;font-size: 11px&quot;&gt;&lt;span style=&quot;font-size: 11px&quot;&gt;suitable&lt;/span&gt;&lt;br style=&quot;font-size: 11px&quot;&gt;&lt;span style=&quot;font-size: 11px&quot;&gt;result&lt;/span&gt;" style="text;html=1;align=center;verticalAlign=middle;resizable=0;points=[];autosize=1;" parent="4" vertex="1">
          <mxGeometry x="185.5" y="132" width="60" height="50" as="geometry" />
        </mxCell>
        <mxCell id="YLWLQg9HbN8ze3cdhpAt-104" value="&lt;font style=&quot;font-size: 11px&quot;&gt;find&lt;br&gt;suitable&lt;br&gt;result&lt;/font&gt;" style="text;html=1;align=center;verticalAlign=middle;resizable=0;points=[];autosize=1;" parent="4" vertex="1">
          <mxGeometry x="185.5" y="52" width="60" height="50" as="geometry" />
        </mxCell>
        <mxCell id="YLWLQg9HbN8ze3cdhpAt-41" value="&lt;span style=&quot;color: rgba(0 , 0 , 0 , 0) ; font-family: monospace ; font-size: 0px&quot;&gt;%3CmxGraphModel%3E%3Croot%3E%3CmxCell%20id%3D%220%22%2F%3E%3CmxCell%20id%3D%221%22%20parent%3D%220%22%2F%3E%3CmxCell%20id%3D%222%22%20value%3D%22Thread%201%22%20style%3D%22swimlane%3BwhiteSpace%3Dwrap%22%20vertex%3D%221%22%20parent%3D%221%22%3E%3CmxGeometry%20x%3D%22164.5%22%20y%3D%22128%22%20width%3D%22280%22%20height%3D%22570%22%20as%3D%22geometry%22%2F%3E%3C%2FmxCell%3E%3CmxCell%20id%3D%223%22%20value%3D%22%22%20style%3D%22ellipse%3Bshape%3DstartState%3BfillColor%3D%23000000%3BstrokeColor%3D%23ff0000%3B%22%20vertex%3D%221%22%20parent%3D%222%22%3E%3CmxGeometry%20x%3D%22100%22%20y%3D%2240%22%20width%3D%2230%22%20height%3D%2230%22%20as%3D%22geometry%22%2F%3E%3C%2FmxCell%3E%3CmxCell%20id%3D%224%22%20value%3D%22%22%20style%3D%22edgeStyle%3DelbowEdgeStyle%3Belbow%3Dhorizontal%3BverticalAlign%3Dbottom%3BendArrow%3Dopen%3BendSize%3D8%3BstrokeColor%3D%23FF0000%3BendFill%3D1%3Brounded%3D0%22%20edge%3D%221%22%20parent%3D%222%22%20source%3D%223%22%20target%3D%225%22%3E%3CmxGeometry%20x%3D%22100%22%20y%3D%2240%22%20as%3D%22geometry%22%3E%3CmxPoint%20x%3D%22115%22%20y%3D%22110%22%20as%3D%22targetPoint%22%2F%3E%3C%2FmxGeometry%3E%3C%2FmxCell%3E%3CmxCell%20id%3D%225%22%20value%3D%22idle%22%20style%3D%22%22%20vertex%3D%221%22%20parent%3D%222%22%3E%3CmxGeometry%20x%3D%2260%22%20y%3D%22110%22%20width%3D%22110%22%20height%3D%2250%22%20as%3D%22geometry%22%2F%3E%3C%2FmxCell%3E%3CmxCell%20id%3D%226%22%20value%3D%22user%20action%22%20style%3D%22%22%20vertex%3D%221%22%20parent%3D%222%22%3E%3CmxGeometry%20x%3D%2260%22%20y%3D%22220%22%20width%3D%22110%22%20height%3D%2250%22%20as%3D%22geometry%22%2F%3E%3C%2FmxCell%3E%3CmxCell%20id%3D%227%22%20value%3D%22%22%20style%3D%22endArrow%3Dopen%3BstrokeColor%3D%23FF0000%3BendFill%3D1%3Brounded%3D0%22%20edge%3D%221%22%20parent%3D%222%22%20source%3D%225%22%20target%3D%226%22%3E%3CmxGeometry%20relative%3D%221%22%20as%3D%22geometry%22%2F%3E%3C%2FmxCell%3E%3CmxCell%20id%3D%228%22%20value%3D%22post%20command%22%20style%3D%22%22%20vertex%3D%221%22%20parent%3D%222%22%3E%3CmxGeometry%20x%3D%2260%22%20y%3D%22325%22%20width%3D%22110%22%20height%3D%2250%22%20as%3D%22geometry%22%2F%3E%3C%2FmxCell%3E%3CmxCell%20id%3D%229%22%20value%3D%22%22%20style%3D%22endArrow%3Dopen%3BstrokeColor%3D%23FF0000%3BendFill%3D1%3Brounded%3D0%22%20edge%3D%221%22%20parent%3D%222%22%20source%3D%226%22%20target%3D%228%22%3E%3CmxGeometry%20relative%3D%221%22%20as%3D%22geometry%22%2F%3E%3C%2FmxCell%3E%3CmxCell%20id%3D%2210%22%20value%3D%22%22%20style%3D%22edgeStyle%3DelbowEdgeStyle%3Belbow%3Dhorizontal%3BstrokeColor%3D%23FF0000%3BendArrow%3Dopen%3BendFill%3D1%3Brounded%3D0%22%20edge%3D%221%22%20parent%3D%222%22%20source%3D%228%22%20target%3D%225%22%3E%3CmxGeometry%20width%3D%22100%22%20height%3D%22100%22%20relative%3D%221%22%20as%3D%22geometry%22%3E%3CmxPoint%20x%3D%22160%22%20y%3D%22290%22%20as%3D%22sourcePoint%22%2F%3E%3CmxPoint%20x%3D%22260%22%20y%3D%22190%22%20as%3D%22targetPoint%22%2F%3E%3CArray%20as%3D%22points%22%3E%3CmxPoint%20x%3D%2230%22%20y%3D%22250%22%2F%3E%3C%2FArray%3E%3C%2FmxGeometry%3E%3C%2FmxCell%3E%3C%2Froot%3E%3C%2FmxGraphModel%3E&lt;/span&gt;" style="text;html=1;align=center;verticalAlign=middle;resizable=0;points=[];autosize=1;" parent="1" vertex="1">
          <mxGeometry x="1040" y="144" width="20" height="20" as="geometry" />
        </mxCell>
        <mxCell id="YLWLQg9HbN8ze3cdhpAt-42" value="Database" style="swimlane;whiteSpace=wrap" parent="1" vertex="1">
          <mxGeometry x="1004.5" y="128" width="335.5" height="570" as="geometry" />
        </mxCell>
        <mxCell id="YLWLQg9HbN8ze3cdhpAt-96" value="Store data&#xa;in database" style="" parent="YLWLQg9HbN8ze3cdhpAt-42" vertex="1">
          <mxGeometry x="75.5" y="355" width="160" height="40" as="geometry" />
        </mxCell>
        <mxCell id="YLWLQg9HbN8ze3cdhpAt-99" value="" style="endArrow=none;html=1;strokeWidth=7;" parent="YLWLQg9HbN8ze3cdhpAt-42" edge="1">
          <mxGeometry width="50" height="50" relative="1" as="geometry">
            <mxPoint x="145.5" y="202" as="sourcePoint" />
            <mxPoint x="145.5" y="90" as="targetPoint" />
          </mxGeometry>
        </mxCell>
        <mxCell id="YLWLQg9HbN8ze3cdhpAt-103" value="" style="endArrow=open;endFill=1;endSize=12;html=1;strokeWidth=1;" parent="YLWLQg9HbN8ze3cdhpAt-42" target="YLWLQg9HbN8ze3cdhpAt-101" edge="1">
          <mxGeometry width="160" relative="1" as="geometry">
            <mxPoint x="144.1199999999999" y="105.66" as="sourcePoint" />
            <mxPoint x="175.5" y="106" as="targetPoint" />
          </mxGeometry>
        </mxCell>
        <mxCell id="YLWLQg9HbN8ze3cdhpAt-105" value="" style="endArrow=open;endFill=1;endSize=12;html=1;strokeWidth=1;entryX=1;entryY=0.5;entryDx=0;entryDy=0;" parent="YLWLQg9HbN8ze3cdhpAt-42" target="YLWLQg9HbN8ze3cdhpAt-102" edge="1">
          <mxGeometry width="160" relative="1" as="geometry">
            <mxPoint x="144.5" y="178" as="sourcePoint" />
            <mxPoint x="225.5" y="167.88046292976372" as="targetPoint" />
          </mxGeometry>
        </mxCell>
        <mxCell id="YLWLQg9HbN8ze3cdhpAt-76" style="edgeStyle=orthogonalEdgeStyle;rounded=0;orthogonalLoop=1;jettySize=auto;html=1;entryX=1;entryY=0.5;entryDx=0;entryDy=0;" parent="1" source="YLWLQg9HbN8ze3cdhpAt-70" target="YLWLQg9HbN8ze3cdhpAt-66" edge="1">
          <mxGeometry relative="1" as="geometry" />
        </mxCell>
        <mxCell id="YLWLQg9HbN8ze3cdhpAt-78" style="edgeStyle=orthogonalEdgeStyle;rounded=0;orthogonalLoop=1;jettySize=auto;html=1;" parent="1" source="10" edge="1">
          <mxGeometry relative="1" as="geometry">
            <mxPoint x="80" y="660" as="targetPoint" />
            <Array as="points">
              <mxPoint x="80" y="660" />
            </Array>
          </mxGeometry>
        </mxCell>
        <mxCell id="YLWLQg9HbN8ze3cdhpAt-93" style="edgeStyle=orthogonalEdgeStyle;rounded=0;orthogonalLoop=1;jettySize=auto;html=1;entryX=0;entryY=0.5;entryDx=0;entryDy=0;" parent="1" source="YLWLQg9HbN8ze3cdhpAt-90" target="YLWLQg9HbN8ze3cdhpAt-92" edge="1">
          <mxGeometry relative="1" as="geometry" />
        </mxCell>
        <mxCell id="YLWLQg9HbN8ze3cdhpAt-90" value="Reveive Command" style="" parent="1" vertex="1">
          <mxGeometry x="803.12" y="413" width="122.75" height="33" as="geometry" />
        </mxCell>
        <mxCell id="YLWLQg9HbN8ze3cdhpAt-91" style="edgeStyle=orthogonalEdgeStyle;rounded=0;orthogonalLoop=1;jettySize=auto;html=1;entryX=0;entryY=0.5;entryDx=0;entryDy=0;" parent="1" source="YLWLQg9HbN8ze3cdhpAt-84" target="YLWLQg9HbN8ze3cdhpAt-90" edge="1">
          <mxGeometry relative="1" as="geometry">
            <Array as="points">
              <mxPoint x="750" y="495" />
              <mxPoint x="750" y="430" />
            </Array>
          </mxGeometry>
        </mxCell>
        <mxCell id="YLWLQg9HbN8ze3cdhpAt-100" style="edgeStyle=orthogonalEdgeStyle;rounded=0;orthogonalLoop=1;jettySize=auto;html=1;strokeWidth=1;" parent="1" source="YLWLQg9HbN8ze3cdhpAt-92" edge="1">
          <mxGeometry relative="1" as="geometry">
            <mxPoint x="1150" y="260" as="targetPoint" />
          </mxGeometry>
        </mxCell>
        <mxCell id="YLWLQg9HbN8ze3cdhpAt-92" value="Search&#xa;database" style="" parent="1" vertex="1">
          <mxGeometry x="1030" y="240" width="72.75" height="40" as="geometry" />
        </mxCell>
        <mxCell id="YLWLQg9HbN8ze3cdhpAt-98" style="edgeStyle=orthogonalEdgeStyle;rounded=0;orthogonalLoop=1;jettySize=auto;html=1;entryX=0;entryY=0.5;entryDx=0;entryDy=0;" parent="1" source="YLWLQg9HbN8ze3cdhpAt-82" target="YLWLQg9HbN8ze3cdhpAt-96" edge="1">
          <mxGeometry relative="1" as="geometry" />
        </mxCell>
        <mxCell id="YLWLQg9HbN8ze3cdhpAt-101" value="return success&#xa;to APP" style="" parent="1" vertex="1">
          <mxGeometry x="800" y="218" width="88.25" height="32" as="geometry" />
        </mxCell>
        <mxCell id="YLWLQg9HbN8ze3cdhpAt-102" value="return fail&#xa;to APP" style="" parent="1" vertex="1">
          <mxGeometry x="800" y="290" width="88.25" height="32" as="geometry" />
        </mxCell>
        <mxCell id="YLWLQg9HbN8ze3cdhpAt-114" style="edgeStyle=orthogonalEdgeStyle;rounded=0;orthogonalLoop=1;jettySize=auto;html=1;strokeWidth=1;" parent="1" source="YLWLQg9HbN8ze3cdhpAt-107" edge="1">
          <mxGeometry relative="1" as="geometry">
            <mxPoint x="118" y="660" as="targetPoint" />
          </mxGeometry>
        </mxCell>
        <mxCell id="YLWLQg9HbN8ze3cdhpAt-107" value="Predict Comfort level&#xa;(machine learning)" style="" parent="1" vertex="1">
          <mxGeometry x="137.75" y="610" width="130" height="30" as="geometry" />
        </mxCell>
        <mxCell id="YLWLQg9HbN8ze3cdhpAt-113" style="edgeStyle=orthogonalEdgeStyle;rounded=0;orthogonalLoop=1;jettySize=auto;html=1;strokeWidth=1;" parent="1" source="10" target="YLWLQg9HbN8ze3cdhpAt-107" edge="1">
          <mxGeometry relative="1" as="geometry">
            <Array as="points">
              <mxPoint x="143" y="610" />
              <mxPoint x="143" y="610" />
            </Array>
          </mxGeometry>
        </mxCell>
        <mxCell id="YLWLQg9HbN8ze3cdhpAt-121" style="edgeStyle=orthogonalEdgeStyle;rounded=0;orthogonalLoop=1;jettySize=auto;html=1;exitX=0.75;exitY=0.5;exitDx=0;exitDy=0;exitPerimeter=0;strokeWidth=1;" parent="1" source="YLWLQg9HbN8ze3cdhpAt-116" edge="1">
          <mxGeometry relative="1" as="geometry">
            <mxPoint x="320" y="460" as="targetPoint" />
            <Array as="points">
              <mxPoint x="320" y="635" />
              <mxPoint x="320" y="460" />
            </Array>
          </mxGeometry>
        </mxCell>
        <mxCell id="YLWLQg9HbN8ze3cdhpAt-122" style="edgeStyle=orthogonalEdgeStyle;rounded=0;orthogonalLoop=1;jettySize=auto;html=1;exitX=0.25;exitY=0.5;exitDx=0;exitDy=0;exitPerimeter=0;entryX=0.5;entryY=1;entryDx=0;entryDy=0;strokeWidth=1;" parent="1" source="YLWLQg9HbN8ze3cdhpAt-116" target="YLWLQg9HbN8ze3cdhpAt-79" edge="1">
          <mxGeometry relative="1" as="geometry" />
        </mxCell>
        <mxCell id="YLWLQg9HbN8ze3cdhpAt-137" style="edgeStyle=orthogonalEdgeStyle;rounded=0;orthogonalLoop=1;jettySize=auto;html=1;entryX=1;entryY=0.75;entryDx=0;entryDy=0;strokeWidth=1;" parent="1" source="YLWLQg9HbN8ze3cdhpAt-136" target="YLWLQg9HbN8ze3cdhpAt-66" edge="1">
          <mxGeometry relative="1" as="geometry" />
        </mxCell>
        <mxCell id="YLWLQg9HbN8ze3cdhpAt-136" value="Send data to &#xa;APP" style="" parent="1" vertex="1">
          <mxGeometry x="550" y="370" width="104.75" height="50" as="geometry" />
        </mxCell>
        <mxCell id="YLWLQg9HbN8ze3cdhpAt-138" value="Text" style="text;html=1;align=center;verticalAlign=middle;resizable=0;points=[];autosize=1;" parent="1" vertex="1">
          <mxGeometry x="-350" y="100" width="40" height="20" as="geometry" />
        </mxCell>
      </root>
    </mxGraphModel>
  </diagram>
</mxfile>
